<svg xmlns="http://www.w3.org/2000/svg" viewBox="0 0 640 480" role="img" aria-label="Abstract tidal survey placeholder ref 115">
  <rect width="640" height="480" fill="#04080d"/>
  <path d="M0 80h640M0 160h640M0 240h640M0 320h640M0 400h640M80 0v480M160 0v480M240 0v480M320 0v480M400 0v480M480 0v480M560 0v480" stroke="#16312f" stroke-width="1"/>
  <rect x="84" y="66" width="472" height="374" fill="#0c1a1c" stroke="#ffb454" stroke-width="3"/>
  <circle cx="320" cy="230" r="132" fill="none" stroke="#ffb454" stroke-width="3"/><circle cx="320" cy="230" r="70" fill="none" stroke="#d6552f" stroke-width="3"/><path d="M320 82v292M174 228h292" stroke="#16312f" stroke-width="3"/><path d="M274 164h92v128h-92z" fill="none" stroke="#5cd0e6" stroke-width="2"/>
  <text x="92" y="404" fill="#5cd0e6" font-family="monospace" font-size="28">REF-115</text>
</svg>
