<svg xmlns="http://www.w3.org/2000/svg" viewBox="0 0 640 480" role="img" aria-label="Abstract lab placeholder ref-016">
  <rect width="640" height="480" fill="#050706"/>
  <path d="M0 80h640M0 160h640M0 240h640M0 320h640M0 400h640M80 0v480M160 0v480M240 0v480M320 0v480M400 0v480M480 0v480M560 0v480" stroke="#263326" stroke-width="1"/>
  <rect x="64" y="56" width="512" height="368" fill="#0e120f" opacity="0.9" stroke="#263326" stroke-width="2"/>
  <rect x="96" y="209" width="38" height="151" fill="none" stroke="#b8ff6a" stroke-width="3"/><rect x="168" y="192" width="38" height="168" fill="none" stroke="#ff3d2e" stroke-width="3"/><rect x="240" y="175" width="38" height="185" fill="none" stroke="#b8ff6a" stroke-width="3"/><rect x="312" y="158" width="38" height="202" fill="none" stroke="#ff3d2e" stroke-width="3"/><rect x="384" y="141" width="38" height="219" fill="none" stroke="#b8ff6a" stroke-width="3"/><rect x="456" y="124" width="38" height="236" fill="none" stroke="#ff3d2e" stroke-width="3"/>
  <path d="M96 388h448" stroke="#ff3d2e" stroke-width="3" stroke-dasharray="10 12" opacity="0.75"/>
  <text x="92" y="432" fill="#f4e8cd" font-family="monospace" font-size="28">REF-016</text>
</svg>
