<svg xmlns="http://www.w3.org/2000/svg" viewBox="0 0 640 480" role="img" aria-label="Abstract lab placeholder ref-022">
  <rect width="640" height="480" fill="#050706"/>
  <path d="M0 80h640M0 160h640M0 240h640M0 320h640M0 400h640M80 0v480M160 0v480M240 0v480M320 0v480M400 0v480M480 0v480M560 0v480" stroke="#263326" stroke-width="1"/>
  <rect x="64" y="56" width="512" height="368" fill="#050706" opacity="0.9" stroke="#263326" stroke-width="2"/>
  <circle cx="320" cy="224" r="80" fill="none" stroke="#f4e8cd" stroke-width="3" opacity="0.8"/><circle cx="320" cy="224" r="34" fill="none" stroke="#62e6ff" stroke-width="2" opacity="0.75"/><rect x="136" y="82" width="180" height="268" fill="#f4e8cd" opacity="0.1" stroke="#f4e8cd"/><rect x="268" y="116" width="220" height="230" fill="#050706" opacity="0.72" stroke="#62e6ff"/>
  <path d="M96 388h448" stroke="#62e6ff" stroke-width="3" stroke-dasharray="10 12" opacity="0.75"/>
  <text x="92" y="432" fill="#f4e8cd" font-family="monospace" font-size="28">REF-022</text>
</svg>
