<svg xmlns="http://www.w3.org/2000/svg" viewBox="0 0 640 480" role="img" aria-label="Abstract lab placeholder ref 008">
  <rect width="640" height="480" fill="#050706"/>
  <rect x="86" y="54" width="468" height="372" fill="#0e120f" stroke="#263326" stroke-width="2"/>
  <path d="M120 98h392M120 134h392M120 170h392M120 206h392M120 242h392M120 278h392M120 314h392M120 350h392" stroke="#263326"/>
  <path d="M148 112h52v52h-52zM236 178h70v50h-70zM348 114h88v44h-88zM150 274h112v54H150zM332 266h142v62H332z" fill="none" stroke="#62e6ff" stroke-width="3"/>
  <circle cx="506" cy="102" r="7" fill="#b8ff6a"/><circle cx="506" cy="206" r="7" fill="#b8ff6a"/><circle cx="506" cy="350" r="7" fill="#b8ff6a"/>
  <text x="108" y="404" fill="#f4e8cd" font-family="monospace" font-size="28">REF-008</text>
</svg>
