<svg xmlns="http://www.w3.org/2000/svg" viewBox="0 0 640 480" role="img" aria-label="Abstract lab placeholder ref 012">
  <rect width="640" height="480" fill="#050706"/>
  <path d="M0 120h640M0 240h640M0 360h640M160 0v480M320 0v480M480 0v480" stroke="#263326" stroke-width="1"/>
  <rect x="80" y="72" width="188" height="132" fill="#0e120f" stroke="#62e6ff" stroke-width="2"/>
  <rect x="356" y="78" width="190" height="110" fill="#0e120f" stroke="#8a9588" stroke-width="2"/>
  <rect x="112" y="260" width="166" height="108" fill="#0e120f" stroke="#8a9588" stroke-width="2"/>
  <rect x="342" y="242" width="206" height="142" fill="#0e120f" stroke="#62e6ff" stroke-width="2"/>
  <path d="M106 116h122M106 152h86M382 118h124M382 152h78M138 304h102M138 338h66M370 286h136M370 326h88" stroke="#b8ff6a" stroke-width="4"/>
  <circle cx="302" cy="224" r="7" fill="#b8ff6a"/><circle cx="336" cy="224" r="7" fill="#ff3d2e"/>
  <text x="92" y="432" fill="#f4e8cd" font-family="monospace" font-size="28">REF-012</text>
</svg>
