<svg xmlns="http://www.w3.org/2000/svg" viewBox="0 0 640 480" role="img" aria-label="Abstract tidal survey placeholder ref 101">
  <rect width="640" height="480" fill="#04080d"/>
  <path d="M0 80h640M0 160h640M0 240h640M0 320h640M0 400h640M80 0v480M160 0v480M240 0v480M320 0v480M400 0v480M480 0v480M560 0v480" stroke="#16312f" stroke-width="1"/>
  <rect x="60" y="54" width="520" height="386" fill="#0c1a1c" stroke="#ffb454" stroke-width="3"/>
  <rect x="110" y="114" width="210" height="126" fill="none" stroke="#5cd0e6" stroke-width="2"/><path d="M356 120h142M356 152h86M356 184h118M356 216h64" stroke="#ffb454" stroke-width="5"/><path d="M120 256h390" stroke="#d6552f" stroke-width="3" stroke-dasharray="10 12"/>
  <text x="92" y="404" fill="#5cd0e6" font-family="monospace" font-size="28">REF-101</text>
</svg>
