<svg xmlns="http://www.w3.org/2000/svg" viewBox="0 0 640 480" role="img" aria-label="Abstract lab placeholder ref 003">
  <rect width="640" height="480" fill="#050706"/>
  <path d="M40 52h560v376H40z" fill="#0e120f" stroke="#263326" stroke-width="2"/>
  <path d="M82 96h476M82 136h476M82 176h476M82 216h476M82 256h476M82 296h476M82 336h476" stroke="#263326"/>
  <path d="M98 112h92l18 16h80l26-20h126l18 14h78M98 192h118l18-22h82l18 16h102l22-18h78M98 272h74l28 22h118l16-18h88l28 20h86" fill="none" stroke="#62e6ff" stroke-width="4"/>
  <rect x="244" y="146" width="150" height="152" fill="none" stroke="#b8ff6a" stroke-width="3"/>
  <path d="M264 184h110M264 224h82M264 264h128" stroke="#b8ff6a" stroke-width="5"/>
  <text x="92" y="392" fill="#f4e8cd" font-family="monospace" font-size="28">REF-003</text>
</svg>
