<svg xmlns="http://www.w3.org/2000/svg" viewBox="0 0 640 480" role="img" aria-label="Abstract tidal survey placeholder ref 124">
  <rect width="640" height="480" fill="#04080d"/>
  <path d="M0 80h640M0 160h640M0 240h640M0 320h640M0 400h640M80 0v480M160 0v480M240 0v480M320 0v480M400 0v480M480 0v480M560 0v480" stroke="#16312f" stroke-width="1"/>
  <rect x="78" y="72" width="484" height="368" fill="#0c1a1c" stroke="#ffb454" stroke-width="3"/>
  <path d="M170 100v280" stroke="#ffb454" stroke-width="4"/><path d="M192 122h34M192 166h54M192 210h26M192 254h66M192 298h42" stroke="#ffb454" stroke-width="5"/><path d="M360 130h180M360 180h120M360 230h160" stroke="#5cd0e6" stroke-width="5"/><path d="M360 300h200" stroke="#d6552f" stroke-width="3" stroke-dasharray="8 10"/>
  <text x="92" y="404" fill="#5cd0e6" font-family="monospace" font-size="28">REF-124</text>
</svg>
