<svg xmlns="http://www.w3.org/2000/svg" width="640" height="400" viewBox="0 0 640 400" role="img" aria-label="Meridian Signal Console preview">
  <rect width="640" height="400" fill="#050706"/>
  <path d="M0 40H640M0 80H640M0 120H640M0 160H640M0 200H640M0 240H640M0 280H640M0 320H640M0 360H640M40 0V400M80 0V400M120 0V400M160 0V400M200 0V400M240 0V400M280 0V400M320 0V400M360 0V400M400 0V400M440 0V400M480 0V400M520 0V400M560 0V400M600 0V400" stroke="#b8ff6a" stroke-opacity=".12"/>
  <rect x="28" y="28" width="584" height="344" fill="none" stroke="#f4e8cd" stroke-opacity=".18"/>
  <circle cx="197" cy="153" r="61" fill="none" stroke="#62e6ff" stroke-opacity=".75" stroke-dasharray="8 8"/>
  <path d="M84 290 C 178 99, 314 319, 556 108" fill="none" stroke="#b8ff6a" stroke-width="3" stroke-opacity=".8"/>
  <path d="M98 120H250V268H98zM300 92H548V150H300zM316 190H560V294H316z" fill="none" stroke="#ff4fd8" stroke-opacity=".7"/>
  <text x="44" y="64" fill="#f4e8cd" font-family="IBM Plex Mono, Consolas, monospace" font-size="22" font-weight="700">Meridian Signal Console</text>
  <text x="44" y="94" fill="#b8ff6a" font-family="IBM Plex Mono, Consolas, monospace" font-size="13">data-cartography / variant 1</text>
  <text x="44" y="350" fill="#f4e8cd" fill-opacity=".68" font-family="IBM Plex Mono, Consolas, monospace" font-size="12">signal / cartography / telemetry</text>
</svg>